o CodeBox
mtllib box-from-code.mtl
v -0.6519 -0.1588 -0.6360
v 0.6714 -0.7602 -0.8476
v 1.0910 0.2929 -0.1542
v -0.6800 0.6436 -0.6788
v 0.1076 0.0044 -0.8792
usemtl Face0_0
f 1 2 5
usemtl Face0_1
f 2 3 5
usemtl Face0_2
f 3 4 5
usemtl Face0_3
f 4 1 5
v -0.8507 -0.3938 0.7695
v 1.1836 -0.5118 0.7217
v 0.9738 0.5068 0.6677
v -0.7718 0.4863 0.3694
v 0.1337 0.0219 0.9321
usemtl Face1_0
f 6 7 10
usemtl Face1_1
f 7 8 10
usemtl Face1_2
f 8 9 10
usemtl Face1_3
f 9 6 10
v -0.6519 -0.1588 -0.6360
v 0.6714 -0.7602 -0.8476
v 1.1836 -0.5118 0.7217
v -0.8507 -0.3938 0.7695
v 0.0881 -0.7562 0.0019
usemtl Face2_0
f 11 12 15
usemtl Face2_1
f 12 13 15
usemtl Face2_2
f 13 14 15
usemtl Face2_3
f 14 11 15
v -0.6800 0.6436 -0.6788
v 1.0910 0.2929 -0.1542
v 0.9738 0.5068 0.6677
v -0.7718 0.4863 0.3694
v 0.1532 0.7824 0.0510
usemtl Face3_0
f 16 17 20
usemtl Face3_1
f 17 18 20
usemtl Face3_2
f 18 19 20
usemtl Face3_3
f 19 16 20
v -0.6519 -0.1588 -0.6360
v -0.6800 0.6436 -0.6788
v -0.7718 0.4863 0.3694
v -0.8507 -0.3938 0.7695
v -1.0386 0.1443 -0.0440
usemtl Face4_0
f 21 22 25
usemtl Face4_1
f 22 23 25
usemtl Face4_2
f 23 24 25
usemtl Face4_3
f 24 21 25
v 0.6714 -0.7602 -0.8476
v 1.0910 0.2929 -0.1542
v 0.9738 0.5068 0.6677
v 1.1836 -0.5118 0.7217
v 1.2800 -0.1181 0.0969
usemtl Face5_0
f 26 27 30
usemtl Face5_1
f 27 28 30
usemtl Face5_2
f 28 29 30
usemtl Face5_3
f 29 26 30
